<?xml version="1.0" ?><!DOCTYPE svg  PUBLIC '-//W3C//DTD SVG 1.1//EN'  'http://www.w3.org/Graphics/SVG/1.1/DTD/svg11.dtd'><svg height="45px" style="shape-rendering:geometricPrecision; text-rendering:geometricPrecision; image-rendering:optimizeQuality; fill-rule:evenodd; clip-rule:evenodd" viewBox="0 0 6.82666 6.82666" width="45px" xml:space="preserve" xmlns="http://www.w3.org/2000/svg" xmlns:xlink="http://www.w3.org/1999/xlink"><defs><style type="text/css">
   <![CDATA[
    .fil1 {fill:none}
    .fil0 {fill:black;fill-rule:nonzero}
   ]]>
  </style></defs><g id="Layer_x0020_1"><path class="fil0" d="M1.55535 2.08935l0.545213 0c-0.0629055,0.296634 -0.0871063,0.604571 -0.0871063,0.901752 0,0.0883346 0.0716614,0.159996 0.159996,0.159996 0.0883346,0 0.159996,-0.0716614 0.159996,-0.159996 0,-0.296043 0.0249724,-0.606878 0.0939606,-0.901752l1.86312 0c0.0689921,0.294874 0.0939606,0.605709 0.0939606,0.901752 0,0.0883346 0.0716614,0.159996 0.159996,0.159996 0.0883346,0 0.159996,-0.0716614 0.159996,-0.159996 0,-0.297181 -0.0242008,-0.605118 -0.0871063,-0.901752l0.568992 0c0.0430472,0 0.0781535,0.0340039 0.0799252,0.0766181l0.295819 3.60532 6.69291e-005 -3.93701e-006c0.00361024,0.0440315 -0.0291575,0.0826654 -0.073189,0.0862756 -0.00223622,0.000185039 -0.00445669,0.000267717 -0.00666142,0.000267717l-4.22365 0c-0.0441811,0 -0.08,-0.0358189 -0.08,-0.08 0,-0.00337008 0.000208661,-0.00668504 0.000614173,-0.00994488l0.295776 -3.60478 0.079689 0.00625197 -0.0797323 -0.00654331c0.00344488,-0.0420354 0.038815,-0.0738071 0.0803268,-0.0734567z"/><path class="fil0" d="M2.09345 2.9911c0,0.0441811 0.0358189,0.08 0.08,0.08 0.0441811,0 0.08,-0.0358189 0.08,-0.08 0,-1.01507 0.293035,-1.66029 0.668114,-1.93883 0.13865,-0.102961 0.28835,-0.154445 0.437406,-0.154445 0.149051,0 0.298756,0.0514843 0.437402,0.154449 0.375075,0.278531 0.668114,0.923744 0.668114,1.93882 0,0.0441811 0.0358189,0.08 0.08,0.08 0.0441811,0 0.08,-0.0358189 0.08,-0.08 0,-1.07127 -0.321547,-1.76132 -0.733114,-2.06695 -0.16726,-0.124213 -0.349512,-0.186323 -0.532402,-0.186323 -0.182886,0 -0.365142,0.0621063 -0.532406,0.186319 -0.411567,0.305638 -0.733114,0.995693 -0.733114,2.06695z"/></g><rect class="fil1" height="6.82666" width="6.82666"/></svg>