<?xml version="1.0" ?><!DOCTYPE svg  PUBLIC '-//W3C//DTD SVG 1.1//EN'  'http://www.w3.org/Graphics/SVG/1.1/DTD/svg11.dtd'><svg enable-background="new 0 0 91 91" height="45px" id="Layer_1" version="1.1" viewBox="0 0 91 91" width="45px" xml:space="preserve" xmlns="http://www.w3.org/2000/svg" xmlns:xlink="http://www.w3.org/1999/xlink"><g><path d="M78.915,19.65c-0.348-5.268-5.762-10.969-12.988-11.465c-3.213-0.227-6.775,0.58-10.416,2.9   c-6.656,4.244-8.176,10.707-9.029,15.674c-0.34-3.785-1.554-8.6-5.916-12.016c-3.564-2.803-6.849-3.977-9.662-4.18   c-4.734-0.326-8.117,2.154-9.188,4.432c-4.806,10.211,10.354,9.672,18.669,13.027c-0.002,0.006-0.002,0.006-0.004,0.021   l-22.752-1.574l-1.992-0.145l-0.549,7.924l1.967,0.137l-0.035,0.518l0.023,0.006l-1.147,16.568l-0.063,0.92l-0.104,1.5   l26.534,1.809l1.406-20.637c0.091-1.385,1.294-2.432,2.679-2.338c1.387,0.096,2.432,1.293,2.338,2.68L47.28,56.049l26.996,1.838   l0.098-1.43l0.066-0.932l1.061-15.326l0.123-1.766l1.963,0.137l0.551-7.914l-1.967-0.137L52.925,28.91   c-0.031-0.057-0.063-0.117-0.094-0.158C62.272,23.93,79.808,33.104,78.915,19.65z M44.198,26.814   c-5.803-5.283-19.215-4.932-16.084-10.045c0.041-0.072,0.137-0.107,0.212-0.16c0.847-0.631,1.901-1.281,3.536-1.168   c1.713,0.119,4.061,1.072,7.467,3.758c3.004,2.357,4.242,4.9,5.228,7.602C44.437,26.813,44.315,26.805,44.198,26.814z    M49.235,27.193c-0.156-0.018-0.316-0.033-0.469-0.043c-0.016-0.006-0.035-0.006-0.051-0.004c1.338-3.654,3.351-7.41,7.979-10.91   c2.97-2.24,5.443-2.918,7.449-2.785c4.463,0.313,6.585,4.666,6.633,4.738C73.437,27.875,56.686,19.33,49.235,27.193z"/><path d="M15.327,59.695l-0.025,0.004l-0.061,0.873l0.025,0.008l-0.018,0.242l-1.402,20.244c8.898-0.068,17.777-0.17,26.699-0.186   l1.375-20.16L15.378,58.92L15.327,59.695z"/><path d="M45.591,80.863c9.006-0.02,18.061,0.049,27.09,0.076l1.111-16.064l0.016-0.244l0.046-0.672l0.017-0.213l0.059-0.838   L46.937,61.07L45.591,80.863z"/></g></svg>