<?xml version="1.0" ?><svg id="Layer_1" style="enable-background:new 0 0 65 65;" version="1.1" width="45px" height="45px" viewBox="0 0 65 65" xml:space="preserve" xmlns="http://www.w3.org/2000/svg" xmlns:xlink="http://www.w3.org/1999/xlink"><style type="text/css">
	.st0{fill:#1C1F20;}
</style><g><path class="st0" d="M63.5,0.5c-0.6,0-1,0.4-1,1v16c0,0.6,0.4,1,1,1s1-0.4,1-1v-16C64.5,0.9,64.1,0.5,63.5,0.5z"/><path class="st0" d="M63.5,20.5c-0.6,0-1,0.4-1,1v2c0,0.6,0.4,1,1,1s1-0.4,1-1v-2C64.5,20.9,64.1,20.5,63.5,20.5z"/><path class="st0" d="M18.5,8.5c0-0.6-0.4-1-1-1h-11c-0.6,0-1,0.4-1,1s0.4,1,1,1h11C18.1,9.5,18.5,9.1,18.5,8.5z"/><path class="st0" d="M2.5,7.5h-1c-0.6,0-1,0.4-1,1s0.4,1,1,1h1c0.6,0,1-0.4,1-1S3.1,7.5,2.5,7.5z"/><path class="st0" d="M50.5,60.5h-1v-1c0-0.6-0.4-1-1-1s-1,0.4-1,1v1h-1c-0.6,0-1,0.4-1,1s0.4,1,1,1h1v1c0,0.6,0.4,1,1,1s1-0.4,1-1   v-1h1c0.6,0,1-0.4,1-1S51.1,60.5,50.5,60.5z"/><path class="st0" d="M51.5,4.5h1v1c0,0.6,0.4,1,1,1s1-0.4,1-1v-1h1c0.6,0,1-0.4,1-1s-0.4-1-1-1h-1v-1c0-0.6-0.4-1-1-1s-1,0.4-1,1v1   h-1c-0.6,0-1,0.4-1,1S50.9,4.5,51.5,4.5z"/><path class="st0" d="M14.3,24.3c0.7,7.5,4,20.2,17.7,27.5c13.7-7.3,17-19.9,17.7-27.4c-7.7-1.8-13.8-6-17.7-9.5   C28.1,18.4,22.1,22.6,14.3,24.3z M37.5,26.5v3h2c0.6,0,1,0.4,1,1v10c0,0.6-0.4,1-1,1h-14c-0.6,0-1-0.4-1-1v-10c0-0.6,0.4-1,1-1h2   v-3c0-2.8,2.2-5,5-5S37.5,23.8,37.5,26.5z"/><polygon class="st0" points="26.5,31.5 26.5,39.5 38.5,39.5 38.5,31.5 36.5,31.5 28.5,31.5  "/><path class="st0" d="M35.5,26.5c0-1.7-1.3-3-3-3s-3,1.3-3,3v3h6V26.5z"/><path class="st0" d="M32,4.6c0,0-9.5,13.4-24.7,13.6c0,0-3,29.3,24.7,41.4c27.8-12.1,24.7-41.4,24.7-41.4C41.5,18,32,4.6,32,4.6z    M32.5,53.8c-0.1,0.1-0.3,0.1-0.5,0.1s-0.3,0-0.5-0.1c-15.4-7.9-18.7-22.3-19.3-30.2c0-0.5,0.3-1,0.8-1.1   c8.1-1.6,14.4-6.2,18.2-9.8c0.4-0.4,1-0.4,1.4,0c3.8,3.6,10.1,8.2,18.3,9.8c0.5,0.1,0.8,0.5,0.8,1C51.2,31.5,48,45.8,32.5,53.8z"/></g></svg>